<?xml version="1.0" encoding="utf-8"?>
<!-- Generator: Adobe Illustrator 16.0.0, SVG Export Plug-In . SVG Version: 6.00 Build 0)  -->
<!DOCTYPE svg PUBLIC "-//W3C//DTD SVG 1.1//EN" "http://www.w3.org/Graphics/SVG/1.1/DTD/svg11.dtd">
<svg version="1.1" id="Layer_1" xmlns="http://www.w3.org/2000/svg" xmlns:xlink="http://www.w3.org/1999/xlink" x="0px" y="0px"
	 width="31.939px" height="31.94px" viewBox="0 0 31.939 31.94" enable-background="new 0 0 31.939 31.94" xml:space="preserve">
<g>
	<path fill="#FFFFFF" d="M2.943,6.041c0-0.201-0.169-0.37-0.37-0.37H0.351c-0.202,0-0.37,0.169-0.37,0.37v16.671
		c0,0.201,0.168,0.37,0.37,0.37h2.223c0.201,0,0.37-0.169,0.37-0.37v-3.267h26.032v3.267c0,0.201,0.168,0.37,0.37,0.37h2.223
		c0.202,0,0.371-0.169,0.371-0.37v-6.23H2.909V6.041H2.943z"/>
	<circle fill="#FFFFFF" cx="7.658" cy="11.766" r="3.435"/>
	<path fill="#FFFFFF" d="M28.807,11.093l-14.11-3.031c-1.212-0.27-2.392,0.673-2.392,1.919v5.22h19.635v-0.202
		C31.973,13.113,30.659,11.463,28.807,11.093z"/>
</g>
</svg>
