<?xml version="1.0" encoding="utf-8"?>
<!-- Generator: Adobe Illustrator 16.0.0, SVG Export Plug-In . SVG Version: 6.00 Build 0)  -->
<!DOCTYPE svg PUBLIC "-//W3C//DTD SVG 1.1//EN" "http://www.w3.org/Graphics/SVG/1.1/DTD/svg11.dtd">
<svg version="1.1" id="Layer_1" xmlns="http://www.w3.org/2000/svg" xmlns:xlink="http://www.w3.org/1999/xlink" x="0px" y="0px"
	 width="31.939px" height="31.94px" viewBox="0 0 31.939 31.94" enable-background="new 0 0 31.939 31.94" xml:space="preserve">
<g>
	<path fill="#FFFFFF" d="M25.252,16.434c-1.12,0-2.033,0.911-2.033,2.032c0,1.12,0.913,2.033,2.033,2.033
		c1.122,0,2.033-0.913,2.033-2.033C27.285,17.345,26.374,16.434,25.252,16.434z"/>
	<path fill="#FFFFFF" d="M6.543,16.434c-1.122,0-2.033,0.911-2.033,2.032c0,1.12,0.912,2.033,2.033,2.033
		c1.12,0,2.032-0.913,2.032-2.033C8.575,17.345,7.663,16.434,6.543,16.434z"/>
	<path fill="#FFFFFF" d="M30.802,16.434c-0.107-0.354-0.333-0.83-0.795-1.128c-2.126-1.208-4.93-1.52-5.281-1.552
		c-0.353-0.033-0.914-0.112-0.914-0.112s-2.943-2.283-5.735-3.146c-2.792-0.863-8.539-0.25-9.034-0.203
		c-1.173,0.105-4.368,2.469-4.368,2.469S1.19,13.392,0.921,13.63c-0.268,0.239-0.357,1.403-0.349,2.487
		c0.009,1.085,0.203,2.571,0.203,2.571c0.454,0.028,2.899,0.175,2.899,0.175c-0.018-0.131-0.031-0.262-0.031-0.397
		c0-1.601,1.298-2.9,2.9-2.9s2.898,1.343,2.898,2.942c0,0.301-0.045,0.582-0.129,0.902h13.171c-0.085-0.32-0.129-0.603-0.129-0.902
		c0-1.6,1.296-2.92,2.898-2.92c1.601,0,2.899,1.289,2.899,2.89c0,0.252-0.034,0.49-0.096,0.725c0.577,0.025,2.696,0.104,2.859-0.008
		C31.105,19.064,30.908,16.788,30.802,16.434z M8.972,13.478c0,0-0.034-1.767,0.443-2.203c0.477-0.435,3.578-0.323,3.727-0.335
		c0.149-0.01,0.29,0.154,0.301,0.308c0.011,0.157,0.174,2.498,0.174,2.498L8.972,13.478z M20.213,13.959l-5.406-0.135
		c0,0-0.521-2.6-0.542-2.705c-0.022-0.105,0.075-0.18,0.241-0.18c0.165-0.001,2.369,0.199,3.499,0.603
		c1.536,0.548,2.879,1.57,2.879,1.57L20.213,13.959z"/>
</g>
</svg>
