<?xml version="1.0" encoding="utf-8"?>
<!-- Generator: Adobe Illustrator 16.0.0, SVG Export Plug-In . SVG Version: 6.00 Build 0)  -->
<!DOCTYPE svg PUBLIC "-//W3C//DTD SVG 1.1//EN" "http://www.w3.org/Graphics/SVG/1.1/DTD/svg11.dtd">
<svg version="1.1" id="Layer_1" xmlns="http://www.w3.org/2000/svg" xmlns:xlink="http://www.w3.org/1999/xlink" x="0px" y="0px"
	 width="595.279px" height="595.281px" viewBox="-37.93 215.237 595.279 595.281"
	 style="enable-background:new -37.93 215.237 595.279 595.281;" xml:space="preserve">
<style type="text/css">
<![CDATA[
	.st0{fill:#FFFFFF;}
]]>
</style>
<path id="Facebook__x28_alt_x29_" class="st0" d="M557.349,314.457c0-52.133-47.066-99.22-99.213-99.22H61.283
	c-52.146,0-99.213,47.087-99.213,99.22v396.84c0,52.133,47.066,99.221,99.22,99.221h198.42V585.633h-72.756V486.42h72.756v-38.653
	c0-66.665,50.057-126.702,111.616-126.702h80.197v99.213h-80.197c-8.777,0-19.016,10.656-19.016,26.616v39.526h99.213v99.213H352.31
	v224.885h105.826c52.146,0,99.213-47.088,99.213-99.221V314.457z"/>
</svg>
