<?xml version="1.0" encoding="utf-8"?>
<!-- Generator: Adobe Illustrator 16.0.0, SVG Export Plug-In . SVG Version: 6.00 Build 0)  -->
<!DOCTYPE svg PUBLIC "-//W3C//DTD SVG 1.1//EN" "http://www.w3.org/Graphics/SVG/1.1/DTD/svg11.dtd">
<svg version="1.1" id="Layer_1" xmlns="http://www.w3.org/2000/svg" xmlns:xlink="http://www.w3.org/1999/xlink" x="0px" y="0px"
	 width="592.206px" height="592.182px" viewBox="-617.802 124.854 592.206 592.182"
	 style="enable-background:new -617.802 124.854 592.206 592.182;" xml:space="preserve">
<style type="text/css">
<![CDATA[
	.st0{fill:#FFFFFF;}
]]>
</style>
<path class="st0" d="M-472.944,420.796c0-83.39,67.695-151.405,151.071-151.405c83.723,0,151.406,68.016,151.406,151.405
	c0.066,83.553-67.615,151.34-151.167,151.406c-0.08,0-0.159,0-0.238,0C-405.263,572.188-472.944,504.496-472.944,420.796z
	 M-165.553,124.854h-312.292c-76.843,0-139.957,62.781-139.957,139.957v312.292c0,76.831,63.114,139.934,139.957,139.934h312.304
	c77.176,0,139.945-63.103,139.945-139.934V264.811C-25.609,187.635-88.389,124.854-165.553,124.854L-165.553,124.854z
	 M-477.846,159.847h312.304c57.891,0,104.964,47.072,104.964,104.964v312.292c0,57.881-47.085,104.952-104.964,104.952h-312.304
	c-57.89,0-104.976-47.071-104.976-104.952V264.811C-582.822,206.919-535.736,159.847-477.846,159.847z M-134.498,203.986
	c-16.947-0.026-30.708,13.691-30.733,30.638c0,0.032,0,0.064,0,0.096c0,17.007,13.726,30.746,30.733,30.746
	s30.748-13.727,30.748-30.746c0.013-16.961-13.726-30.721-30.688-30.734C-134.456,203.986-134.478,203.986-134.498,203.986z
	 M-130.907,420.796c0-105.298-85.345-190.965-190.965-190.965c-105.297,0-190.966,85.667-190.966,190.965
	c0,105.621,85.668,190.977,190.966,190.977C-216.24,611.75-130.907,526.417-130.907,420.796L-130.907,420.796z"/>
</svg>
