<?xml version="1.0" encoding="utf-8"?>
<!-- Generator: Adobe Illustrator 16.0.0, SVG Export Plug-In . SVG Version: 6.00 Build 0)  -->
<!DOCTYPE svg PUBLIC "-//W3C//DTD SVG 1.1//EN" "http://www.w3.org/Graphics/SVG/1.1/DTD/svg11.dtd">
<svg version="1.1" id="Layer_1" xmlns="http://www.w3.org/2000/svg" xmlns:xlink="http://www.w3.org/1999/xlink" x="0px" y="0px"
	 width="171.9px" height="47.973px" viewBox="0 0 171.9 47.973" enable-background="new 0 0 171.9 47.973" xml:space="preserve">
<path fill="none" d="M46.566,22.94c-0.777-0.32-1.83-0.454-4.209-0.454c-0.504,0-0.959,0-2.01,0.044v9.188
	c1.005,0.046,1.599,0.046,2.33,0.046c2.835,0,4.07-0.32,4.939-1.326c0.641-0.774,1.051-2.1,1.051-3.655
	C48.668,24.905,47.938,23.535,46.566,22.94z"/>
<polygon fill="none" points="72.601,36.29 80.236,36.29 76.625,26.186 "/>
<polygon fill="#2F4C60" points="0,23.077 10.883,23.077 10.883,47.722 19.205,47.722 19.205,23.077 30.089,23.077 30.089,18.732 
	0,18.732 "/>
<path fill="#2F4C60" d="M60.191,47.863c0.365-0.093,0.457-0.23,0.504-0.688l0.229-1.918l-0.139-0.231
	c-3.108-0.458-6.676-4.208-10.104-10.612c4.39-1.184,6.767-3.885,6.767-7.726c0-2.788-1.371-5.212-3.704-6.63
	c-1.827-1.095-4.069-1.509-8.55-1.509c-0.045,0-4.299,0.049-12.804,0.183v28.989h7.958V35.517h1.278h0.823
	c3.568,7.678,6.5,11.298,10.5,12.456h6.816C59.912,47.938,60.055,47.9,60.191,47.863z M47.617,30.438
	c-0.869,1.006-2.104,1.326-4.939,1.326c-0.731,0-1.325,0-2.33-0.046V22.53c1.051-0.044,1.506-0.044,2.01-0.044
	c2.379,0,3.432,0.134,4.209,0.454c1.371,0.595,2.102,1.965,2.102,3.843C48.668,28.339,48.258,29.664,47.617,30.438z"/>
<path fill="#2F4C60" d="M75.345,18.732L61.353,47.722h6.629l2.974-7.312h10.607l2.699,7.312h9.374L81.838,18.732H75.345z
	 M72.601,36.29l4.024-10.104l3.611,10.104H72.601z"/>
<polygon fill="#2F4C60" points="145.82,43.105 130.914,43.105 130.914,34.646 143.719,34.646 143.719,30.393 130.914,30.393 
	130.914,23.077 145.227,23.077 145.227,18.732 122.593,18.732 122.593,47.722 145.82,47.722 "/>
<polygon fill="#2F4C60" points="171.9,43.105 158.272,43.105 158.272,18.732 149.951,18.732 149.951,47.722 171.9,47.722 "/>
<polygon fill="#5BC0D5" points="8.148,8.728 2.919,8.728 2.919,5.76 7.411,5.76 7.411,4.269 2.919,4.269 2.919,1.698 7.939,1.698 
	7.939,0.177 0,0.177 0,10.348 8.148,10.348 "/>
<polygon fill="#5BC0D5" points="13.074,10.348 15.4,6.771 17.421,10.348 20.936,10.348 17.197,4.779 20.936,0.177 18.287,0.177 
	16.17,3.369 14.261,0.177 10.893,0.177 14.374,5.294 10.298,10.348 "/>
<polygon fill="#5BC0D5" points="26.004,5.76 30.496,5.76 30.496,4.269 26.004,4.269 26.004,1.698 31.025,1.698 31.025,0.177 
	23.085,0.177 23.085,10.348 31.234,10.348 31.234,8.728 26.004,8.728 "/>
<path fill="#5BC0D5" d="M35.582,9.609c0.978,0.625,2.165,0.914,3.803,0.914c1.09,0,2.389-0.19,3.176-0.448
	c0.127-0.05,0.145-0.064,0.176-0.304l0.176-1.156c0.018-0.111,0.018-0.111,0.018-0.127c0-0.05,0-0.05-0.113-0.131l-0.272-0.16
	c-0.08-0.032-0.097-0.048-0.112-0.048c-0.032,0-0.064,0.016-0.177,0.113c-0.546,0.432-1.556,0.752-2.423,0.752
	c-2.148,0-3.305-1.458-3.305-4.152c0-2.264,0.914-3.354,2.791-3.354c0.979,0,1.959,0.272,2.76,0.77
	c0.113,0.081,0.145,0.096,0.177,0.096c0.017,0,0.048-0.015,0.081-0.03l0.079-0.033l0.321-0.162c0.145-0.078,0.16-0.078,0.176-0.271
	l0.145-1.173v-0.13c0-0.095-0.016-0.11-0.4-0.206C41.79,0.129,40.73,0,39.801,0c-3.85,0-6.417,2.182-6.417,5.455
	C33.384,7.203,34.186,8.743,35.582,9.609z"/>
<path fill="#5BC0D5" d="M49.666,10.523c2.647,0,4.363-0.851,5.021-2.485c0.242-0.577,0.321-1.157,0.354-2.358l0.111-5.503h-2.197
	v4.989c0,1.652-0.064,2.198-0.337,2.646c-0.354,0.562-1.06,0.835-2.166,0.835c-0.786,0-1.381-0.177-1.765-0.498
	c-0.465-0.401-0.562-0.818-0.562-2.294V0.177h-2.92v5.744c0,1.748,0.161,2.518,0.706,3.224
	C46.602,10.059,47.869,10.523,49.666,10.523z"/>
<polygon fill="#5BC0D5" points="61.12,10.348 64.041,10.348 64.041,1.698 67.859,1.698 67.859,0.177 57.303,0.177 57.303,1.698 
	61.12,1.698 "/>
<rect x="70.008" y="0.177" fill="#5BC0D5" width="2.92" height="10.171"/>
<polygon fill="#5BC0D5" points="81.286,10.348 86.275,0.177 83.885,0.177 80.949,7.284 78.415,0.177 75.078,0.177 79.168,10.348 "/>
<polygon fill="#5BC0D5" points="96.574,8.728 91.345,8.728 91.345,5.76 95.836,5.76 95.836,4.269 91.345,4.269 91.345,1.698 
	96.366,1.698 96.366,0.177 88.426,0.177 88.426,10.348 96.574,10.348 "/>
<path fill="#5BC0D5" d="M133.139,5.531c-17.484,6.587-30.992,22.562-35.534,42.441h10.997
	C110.808,30.205,120.046,14.896,133.139,5.531z"/>
<path fill="#5BC0D5" d="M133.139,5.531c-12.951,4.879-23.71,14.917-30.27,27.871l-5.971-14.67H85.725l11.88,29.24h10.997h0.198
	l-0.145-0.355C110.94,30.002,120.134,14.833,133.139,5.531z"/>
</svg>
