<?xml version="1.0" encoding="utf-8"?>
<!-- Generator: Adobe Illustrator 16.0.0, SVG Export Plug-In . SVG Version: 6.00 Build 0)  -->
<!DOCTYPE svg PUBLIC "-//W3C//DTD SVG 1.1//EN" "http://www.w3.org/Graphics/SVG/1.1/DTD/svg11.dtd">
<svg version="1.1" id="Layer_1" xmlns="http://www.w3.org/2000/svg" xmlns:xlink="http://www.w3.org/1999/xlink" x="0px" y="0px"
	 width="515.511px" height="536.268px" viewBox="40.327 78.681 515.511 536.268"
	 enable-background="new 40.327 78.681 515.511 536.268" xml:space="preserve">
<g>
	<path d="M168.037,90.01c-7.15-10.726-14.302-12.513-26.814-10.726c-23.239,3.575-44.691,5.363-57.204,19.664
		C0,191.905,41.115,320.614,173.4,463.625c134.072,143.01,259.206,191.276,357.525,116.195
		c16.089-12.514,19.664-33.965,23.239-57.204c3.575-12.513,1.788-19.664-8.938-28.602c-1.788,0-101.896-67.93-101.896-67.93
		c-25.026-7.151-50.054,26.813-62.566,42.902c-14.302,16.089-28.603,19.664-41.116,10.726
		c-66.142-44.69-130.496-114.408-169.824-182.338c-8.938-14.301-5.362-28.602,12.514-39.328
		c16.089-14.301,51.841-35.752,46.479-60.779C228.817,197.268,169.824,91.798,168.037,90.01z"/>
</g>
</svg>
