<?xml version="1.0" encoding="utf-8"?>
<!-- Generator: Adobe Illustrator 16.0.0, SVG Export Plug-In . SVG Version: 6.00 Build 0)  -->
<!DOCTYPE svg PUBLIC "-//W3C//DTD SVG 1.1//EN" "http://www.w3.org/Graphics/SVG/1.1/DTD/svg11.dtd">
<svg version="1.1" id="Layer_1" xmlns="http://www.w3.org/2000/svg" xmlns:xlink="http://www.w3.org/1999/xlink" x="0px" y="0px"
	 width="31.939px" height="31.94px" viewBox="0 0 31.939 31.94" enable-background="new 0 0 31.939 31.94" xml:space="preserve">
<g>
	<path fill="#FFFFFF" d="M14.175,2.154c0-0.836,0.678-1.514,1.514-1.514s1.514,0.678,1.514,1.514v3.029
		c0,0.835-0.678,1.515-1.514,1.515s-1.514-0.679-1.514-1.515V2.154z M14.175,26.383c0-0.836,0.678-1.515,1.514-1.515
		s1.514,0.679,1.514,1.515v3.028c0,0.837-0.678,1.515-1.514,1.515s-1.514-0.678-1.514-1.515V26.383z M15.689,21.449
		c-3.13,0-5.667-2.537-5.667-5.667s2.538-5.667,5.667-5.667c3.129,0,5.667,2.537,5.667,5.667S18.818,21.449,15.689,21.449z
		 M2.059,17.297c-0.836,0-1.514-0.679-1.514-1.514c0-0.836,0.678-1.514,1.514-1.514h3.028c0.837,0,1.515,0.678,1.515,1.514
		c0,0.835-0.677,1.514-1.515,1.514H2.059z M26.288,17.297c-0.836,0-1.514-0.679-1.514-1.514c0-0.836,0.678-1.514,1.514-1.514h3.028
		c0.837,0,1.515,0.678,1.515,1.514c0,0.835-0.678,1.514-1.515,1.514H26.288z M25.219,4.112c0.601-0.581,1.559-0.564,2.14,0.037
		c0.567,0.587,0.567,1.517,0,2.104l-2.394,2.393c-0.602,0.582-1.56,0.565-2.142-0.036c-0.566-0.587-0.566-1.519,0-2.105l2.394-2.394
		H25.219z M6.159,27.453c-0.581,0.603-1.541,0.618-2.141,0.037c-0.602-0.58-0.619-1.539-0.037-2.142
		c0.012-0.012,0.024-0.024,0.037-0.037l2.394-2.395c0.581-0.601,1.539-0.617,2.141-0.036c0.602,0.581,0.619,1.54,0.037,2.142
		c-0.013,0.012-0.024,0.024-0.037,0.037l-2.392,2.394H6.159z M4.018,6.253c-0.582-0.603-0.565-1.56,0.036-2.142
		c0.587-0.566,1.518-0.566,2.105,0l2.394,2.394c0.581,0.601,0.564,1.561-0.037,2.141c-0.586,0.567-1.517,0.567-2.104,0L4.018,6.255
		V6.253z M27.358,25.312c0.582,0.603,0.564,1.56-0.036,2.142c-0.588,0.566-1.518,0.566-2.104,0l-2.396-2.394
		c-0.58-0.602-0.563-1.561,0.037-2.143c0.588-0.565,1.519-0.565,2.104,0L27.358,25.312L27.358,25.312z"/>
</g>
</svg>
