<svg xmlns="http://www.w3.org/2000/svg" xmlns:xlink="http://www.w3.org/1999/xlink" version="1.1" x="0px" y="0px" viewBox="0 0 512 640" style="enable-background:new 0 0 512 512;" xml:space="preserve"><path fill="#ffffff" d="M256,123.8c-81,0-146.9,60.6-150,136.5h2.4c8.9-22.1,27.6-37.3,49.1-37.3c21.7,0,40.3,15.3,49.1,37.3h1.8  c7.3-18.4,21.7-32.1,38.8-36c0,12.5,0,85.5,0,121.4h0.1v14.1c0,6.3-5.1,11.4-11.4,11.4c-6.3,0-11.4-5.1-11.4-11.4v-7  c0-4.7-3.8-8.6-8.6-8.6s-8.6,3.9-8.6,8.6v6.9c0,15.8,12.9,28.6,28.6,28.6s28.6-12.9,28.6-28.6v-14.1h0.2c0-36.4,0-111.2,0-122  c18.4,3,33.8,17.1,41.6,36.6h1.8c8.9-22.1,27.6-37.3,49.1-37.3c21.2,0,39.5,14.8,48.7,36C402.3,183.6,336.6,123.8,256,123.8z"/></svg>